<svg width="298" height="77" viewBox="0 0 298 77" xmlns="http://www.w3.org/2000/svg"><path d="M86.676 76.904l-23.612-.281-23.652-45.116H16.964v45.678H.098V.024h16.866v14.195h23.113l6.261-.843 5.622-3.655 4.076-4.497.984-5.2 22.91.14-.844 5.341-4.216 8.292s-3.731 4.72-6.044 6.606c-2.526 2.06-7.824 4.861-9.557 5.756v1.413zm28.672-12.789C96.75 47.615 90.842 22.139 98.361-.014h22.241a40.054 40.054 0 0 0-4.551 13.812c-3.027 21.967 12.326 42.229 34.294 45.256 21.967 3.028 42.229-12.326 45.256-34.293A39.975 39.975 0 0 0 191.04-.014h20.84c6.684 19.722 2.887 42.377-11.921 59.069-7.575 8.539-17.043 14.403-27.213 17.52H137.48c-7.945-2.441-15.508-6.584-22.132-12.46zM262.925.024l6.043 9.697 6.184-9.697h21.223l-17.709 28.415v48.043h-21.223V27.597L240.437-.117z" fill="#efefef"/></svg>