<?xml version="1.0" encoding="UTF-8" standalone="no"?>
<!-- Created with Inkscape (http://www.inkscape.org/) -->

<svg
   xmlns:dc="http://purl.org/dc/elements/1.1/"
   xmlns:cc="http://creativecommons.org/ns#"
   xmlns:rdf="http://www.w3.org/1999/02/22-rdf-syntax-ns#"
   xmlns:svg="http://www.w3.org/2000/svg"
   xmlns="http://www.w3.org/2000/svg"
   xmlns:sodipodi="http://sodipodi.sourceforge.net/DTD/sodipodi-0.dtd"
   xmlns:inkscape="http://www.inkscape.org/namespaces/inkscape"
   width="210mm"
   height="297mm"
   viewBox="0 0 210 297"
   version="1.1"
   id="svg8"
   inkscape:version="0.92.1 r"
   sodipodi:docname="logo-design.svg">
  <defs
     id="defs2" />
  <sodipodi:namedview
     id="base"
     pagecolor="#ffffff"
     bordercolor="#666666"
     borderopacity="1.0"
     inkscape:pageopacity="0.0"
     inkscape:pageshadow="2"
     inkscape:zoom="2.9495549"
     inkscape:cx="186.93389"
     inkscape:cy="731.78823"
     inkscape:document-units="mm"
     inkscape:current-layer="layer1"
     showgrid="false"
     inkscape:window-width="1260"
     inkscape:window-height="787"
     inkscape:window-x="172"
     inkscape:window-y="132"
     inkscape:window-maximized="0" />
  <metadata
     id="metadata5">
    <rdf:RDF>
      <cc:Work
         rdf:about="">
        <dc:format>image/svg+xml</dc:format>
        <dc:type
           rdf:resource="http://purl.org/dc/dcmitype/StillImage" />
        <dc:title></dc:title>
      </cc:Work>
    </rdf:RDF>
  </metadata>
  <g
     inkscape:label="Layer 1"
     inkscape:groupmode="layer"
     id="layer1">
    <g
       aria-label="R"
       style="font-style:normal;font-variant:normal;font-weight:bold;font-stretch:normal;font-size:83.11797332999999810px;line-height:1.25;font-family:sans-serif;-inkscape-font-specification:'sans-serif, Bold';font-variant-ligatures:normal;font-variant-caps:normal;font-variant-numeric:normal;font-feature-settings:normal;text-align:start;letter-spacing:0px;word-spacing:0px;writing-mode:lr-tb;text-anchor:start;fill:#000000;fill-opacity:1;stroke:none;stroke-width:2.07792211"
       id="text12"
       transform="translate(4.8255614,-4.0294684)">
      <path
         d="m 57.664233,91.724324 c 0,-1.515171 -0.311151,-2.81389 -0.933454,-3.896155 -0.622303,-1.082265 -1.69104,-1.934549 -3.206211,-2.556852 -1.055209,-0.432906 -2.286285,-0.689944 -3.69323,-0.771114 -1.406945,-0.108227 -3.043872,-0.16234 -4.910779,-0.16234 h -5.641308 v 16.274567 h 4.789024 c 2.48921,0 4.572571,-0.12176 6.250082,-0.36527 1.677511,-0.24351 3.084456,-0.798168 4.220835,-1.66398 1.082265,-0.838756 1.866908,-1.758682 2.353927,-2.759777 0.514076,-1.028152 0.771114,-2.394512 0.771114,-4.099079 z m 24.310383,41.924246 -16.465825,0 L 23.9824,81.17243 23.775801,73.217587 h 26.136707 c 3.571475,0 6.642403,0.202925 9.212783,0.608775 2.57038,0.405849 4.97842,1.28519 7.22412,2.638021 2.272757,1.352832 4.072024,3.111513 5.397799,5.276043 1.352831,2.137474 2.029247,4.829609 2.029247,8.076405 0,4.464344 -1.04168,8.10346 -3.125041,10.917349 -2.056304,2.81389 -5.005477,5.15429 -8.847519,7.0212 z"
         style="font-style:normal;font-variant:normal;font-weight:bold;font-stretch:normal;font-size:83.11797333px;font-family:sans-serif;-inkscape-font-specification:'sans-serif, Bold';font-variant-ligatures:normal;font-variant-caps:normal;font-variant-numeric:normal;font-feature-settings:normal;text-align:start;writing-mode:lr-tb;text-anchor:start;fill:#000080;fill-opacity:1;stroke:none;stroke-width:2.07792211"
         id="path32"
         inkscape:connector-curvature="0"
         sodipodi:nodetypes="ssccsccscccsccccssccsccc" />
    </g>
    <text
       xml:space="preserve"
       style="font-style:normal;font-variant:normal;font-weight:bold;font-stretch:normal;font-size:83.11797333px;line-height:1.25;font-family:sans-serif;-inkscape-font-specification:'sans-serif, Bold';font-variant-ligatures:normal;font-variant-caps:normal;font-variant-numeric:normal;font-feature-settings:normal;text-align:start;letter-spacing:0px;word-spacing:0px;writing-mode:lr-tb;text-anchor:start;fill:#000000;fill-opacity:1;stroke:none;stroke-width:2.07792211"
       x="263.17114"
       y="113.79877"
       id="text12-5"><tspan
         sodipodi:role="line"
         id="tspan10-9"
         x="263.17114"
         y="113.79877"
         style="font-style:normal;font-variant:normal;font-weight:bold;font-stretch:normal;font-size:83.11797333px;font-family:sans-serif;-inkscape-font-specification:'sans-serif, Bold';font-variant-ligatures:normal;font-variant-caps:normal;font-variant-numeric:normal;font-feature-settings:normal;text-align:start;writing-mode:lr-tb;text-anchor:start;stroke-width:2.07792211">R</tspan></text>
    <path
       style="fill:#0036ff;fill-opacity:1;stroke:none;stroke-width:0.26458332"
       d="M 28.807961,77.142962 70.334352,129.6191 h -41.73299 z"
       id="rect35"
       inkscape:connector-curvature="0"
       sodipodi:nodetypes="cccc" />
    <g
       transform="translate(-86.69103,-12.065185)"
       aria-label="R"
       style="font-style:normal;font-variant:normal;font-weight:bold;font-stretch:normal;font-size:83.11797333px;line-height:1.25;font-family:sans-serif;-inkscape-font-specification:'sans-serif, Bold';font-variant-ligatures:normal;font-variant-caps:normal;font-variant-numeric:normal;font-feature-settings:normal;text-align:start;letter-spacing:0px;word-spacing:0px;writing-mode:lr-tb;text-anchor:start;fill:#000000;fill-opacity:1;stroke:none;stroke-width:2.07792211"
       id="text12-1">
      <path
         d="m 57.664233,91.724324 q 0,-2.272757 -0.933454,-3.896155 -0.933454,-1.623398 -3.206211,-2.556852 -1.582813,-0.649359 -3.69323,-0.771114 -2.110418,-0.16234 -4.910779,-0.16234 h -5.641308 v 16.274567 h 4.789024 q 3.733815,0 6.250082,-0.36527 2.516267,-0.365262 4.220835,-1.66398 1.623398,-1.258134 2.353927,-2.759777 0.771114,-1.542228 0.771114,-4.099079 z M 81.974616,133.64857 H 62.940276 L 46.462787,111.48919 h -7.183536 v 22.15938 H 23.775801 V 73.217587 h 26.136707 q 5.357213,0 9.212783,0.608775 3.85557,0.608774 7.22412,2.638021 3.409136,2.029248 5.397799,5.276043 2.029247,3.206211 2.029247,8.076405 0,6.696516 -3.125041,10.917349 -3.084456,4.22084 -8.847519,7.0212 z"
         style="font-style:normal;font-variant:normal;font-weight:bold;font-stretch:normal;font-size:83.11797333px;font-family:sans-serif;-inkscape-font-specification:'sans-serif, Bold';font-variant-ligatures:normal;font-variant-caps:normal;font-variant-numeric:normal;font-feature-settings:normal;text-align:start;writing-mode:lr-tb;text-anchor:start;fill:#000080;fill-opacity:1;stroke-width:2.07792211"
         id="path32-1"
         inkscape:connector-curvature="0" />
    </g>
    <path
       style="fill:#3d46f1;fill-opacity:1;stroke:#000000;stroke-width:0.26458332"
       d="m -62.70863,69.107249 41.526392,52.476141 h -41.732991 z"
       id="rect35-1"
       inkscape:connector-curvature="0"
       sodipodi:nodetypes="cccc" />
  </g>
</svg>
